<svg width="512" height="137" viewBox="0 0 512 137" fill="none" xmlns="http://www.w3.org/2000/svg">
<g clip-path="url(#clip0_2_14351)">
<path d="M31.4701 87.2906L31.6591 87.3527L45.9582 92.6063C47.0122 92.9798 47.6903 93.6771 47.7664 94.449L47.7736 94.5946V133.967C47.7736 135.638 45.1287 136.713 42.854 136.018L42.6654 135.955L28.3427 130.698C27.2887 130.324 26.6106 129.627 26.5345 128.855L26.5273 128.71V89.3371C26.5273 87.6701 29.1908 86.5947 31.4701 87.2906ZM4.9431 1.69662L5.13179 1.75873L19.4505 7.01626C20.5045 7.40827 21.1861 8.08918 21.2626 8.85916L21.2698 9.00453V132.494C21.2698 134.16 18.6027 135.236 16.3267 134.544L16.138 134.482L1.81538 129.22C0.761378 128.851 0.0832923 128.15 0.00716457 127.378L0 127.232V3.747C0 2.08009 2.66714 1.00091 4.9431 1.69662ZM57.9938 80.6774L58.1825 80.7395L72.5052 85.9971C73.5592 86.3706 74.2373 87.0678 74.3134 87.8398L74.3205 87.9853V124.269C74.3205 125.936 71.6534 127.012 69.3775 126.316L69.1888 126.254L54.8661 120.996C53.8158 120.619 53.1345 119.922 53.0579 119.15L53.0507 119.004V82.7278C53.0507 81.0609 55.7179 79.9817 57.9938 80.6774ZM253.635 47.6108C257.726 47.6108 261.331 48.3509 264.448 49.8309C267.414 51.1809 269.932 53.3499 271.706 56.0826C273.309 58.6435 274.194 61.5887 274.268 64.6094C274.28 64.8464 274.194 65.0779 274.031 65.2501C273.867 65.4223 273.641 65.5202 273.403 65.521H262.067C261.608 65.5197 261.229 65.1617 261.203 64.7037C261.077 62.4639 260.413 60.7193 259.21 59.4697C257.866 58.0709 255.931 57.3727 253.403 57.3754C251.304 57.3754 249.654 57.8705 248.44 58.8646C247.23 59.8629 246.559 61.372 246.628 62.9394C246.612 64.4643 247.258 65.9212 248.401 66.9317C249.582 68.0371 251.572 69.1531 254.369 70.2795L263.729 73.9888C267.598 75.4977 270.461 77.5685 272.319 80.2012C274.176 82.8339 275.103 86.0613 275.101 89.8832C275.169 93.1361 274.271 96.3361 272.519 99.078C270.737 101.765 268.217 103.88 265.262 105.169C262.142 106.591 258.511 107.304 254.369 107.306C247.433 107.306 242.001 105.544 238.074 102.021C234.339 98.6707 232.374 94.0366 232.18 88.1189C232.171 87.8832 232.259 87.6542 232.423 87.4845C232.587 87.3148 232.813 87.219 233.048 87.2191H244.408C244.868 87.2184 245.248 87.5775 245.273 88.0364C245.406 90.711 246.22 92.8316 247.713 94.3981C249.353 96.1192 251.598 96.9797 254.448 96.9797C256.866 96.9797 258.735 96.4414 260.055 95.3647C261.375 94.2881 262.03 92.7556 262.02 90.7674C262.02 89.0463 261.523 87.6618 260.531 86.614C259.538 85.5662 257.75 84.5314 255.167 83.5098L245.002 79.5568C241.237 78.1579 238.387 76.1553 236.451 73.5488C234.515 70.9423 233.547 67.8092 233.547 64.1496C233.486 61.0785 234.342 58.0589 236.007 55.4775C237.736 52.9036 240.173 50.8862 243.025 49.6698C246.064 48.2972 249.6 47.6108 253.635 47.6108ZM511.132 49.2258C511.61 49.2258 511.998 49.6122 512 50.0903V58.845C512 59.3246 511.611 59.7134 511.132 59.7134H491.41C490.932 59.7134 490.544 60.0998 490.542 60.5778V71.6705C490.542 72.1501 490.93 72.5389 491.41 72.5389H511.132C511.365 72.5378 511.589 72.6311 511.752 72.7976C511.916 72.9641 512.005 73.1897 512 73.423V81.938C512 82.168 511.908 82.3884 511.745 82.5507C511.582 82.7129 511.362 82.8035 511.132 82.8025H491.41C490.932 82.8025 490.544 83.1889 490.542 83.6669V94.3588C490.542 94.5888 490.633 94.8093 490.796 94.9715C490.959 95.1337 491.18 95.2243 491.41 95.2233H511.132C511.611 95.2233 512 95.6121 512 96.0917V104.846C511.998 105.324 511.61 105.711 511.132 105.711H478.341C477.863 105.711 477.476 105.324 477.476 104.846V50.0903C477.476 49.6128 477.863 49.2258 478.341 49.2258H511.132ZM439.184 49.2258C439.503 49.2273 439.795 49.402 439.947 49.6816L457.672 82.7318C457.862 83.0797 458.263 83.2549 458.648 83.1577C459.032 83.0605 459.301 82.7155 459.303 82.3192V50.0981C459.305 49.6216 459.691 49.2358 460.167 49.2337H470.938C471.168 49.2326 471.389 49.3232 471.552 49.4855C471.715 49.6477 471.806 49.8682 471.806 50.0981V104.835C471.806 105.065 471.715 105.285 471.552 105.447C471.389 105.609 471.168 105.7 470.938 105.699H458.953C458.628 105.709 458.325 105.536 458.167 105.251L440.438 72.201C440.252 71.8536 439.855 71.6757 439.472 71.7681C439.09 71.8606 438.818 72.2001 438.811 72.5939V104.815C438.809 105.293 438.421 105.679 437.943 105.679H427.172C426.695 105.679 426.308 105.292 426.308 104.815V50.0903C426.308 49.6128 426.695 49.2258 427.172 49.2258H439.184ZM212.05 49.2258C212.288 49.2258 212.504 49.3588 212.611 49.5652L212.651 49.658L231.418 104.858H231.402C231.468 105.052 231.436 105.266 231.317 105.433C231.218 105.572 231.068 105.664 230.902 105.691L230.801 105.699H218.549C218.201 105.698 217.891 105.491 217.755 105.178L217.716 105.07L215.358 96.7086H196.568L194.21 105.07C194.115 105.406 193.83 105.647 193.492 105.692L193.377 105.699H181.125C180.921 105.699 180.728 105.599 180.609 105.433C180.51 105.294 180.472 105.122 180.499 104.957L180.524 104.858L199.212 49.658C199.287 49.4311 199.482 49.2691 199.713 49.2332L199.814 49.2258H212.05ZM401.91 49.2337C402.149 49.2322 402.365 49.3657 402.472 49.5728L402.511 49.6659L421.278 104.858H421.262C421.328 105.052 421.296 105.266 421.177 105.433C421.078 105.572 420.928 105.664 420.762 105.691L420.661 105.699H408.409C408.061 105.698 407.751 105.491 407.615 105.178L407.576 105.07L405.219 96.7086H386.432L384.075 105.07C383.978 105.406 383.692 105.648 383.353 105.692L383.238 105.699H370.99C370.784 105.7 370.591 105.601 370.471 105.434C370.371 105.295 370.332 105.123 370.36 104.957L370.385 104.858L389.073 49.6659C389.147 49.439 389.343 49.2769 389.573 49.2411L389.674 49.2337H401.91ZM153.926 49.2258C159.784 49.2258 164.892 50.5029 169.251 53.057C173.475 55.4732 176.939 59.0211 179.255 63.3009C183.881 72.1863 183.881 82.77 179.255 91.6554C176.954 95.947 173.486 99.4998 169.251 101.903C164.897 104.429 159.789 105.691 153.926 105.691H133.493C133.263 105.692 133.042 105.602 132.879 105.439C132.717 105.277 132.625 105.057 132.625 104.827V50.0903C132.625 49.8603 132.717 49.6398 132.879 49.4776C133.042 49.3154 133.263 49.2248 133.493 49.2258H153.926ZM344.608 48.3613C344.837 48.3603 345.058 48.451 345.22 48.6134C345.383 48.7757 345.473 48.9962 345.472 49.2258V93.2114C345.474 93.6895 345.863 94.0759 346.341 94.0759H365.595C366.073 94.0759 366.461 94.4623 366.463 94.9404V104.827C366.463 105.057 366.371 105.277 366.209 105.439C366.046 105.602 365.825 105.692 365.595 105.691H333.279C333.05 105.692 332.829 105.602 332.667 105.439C332.505 105.277 332.414 105.056 332.415 104.827V49.2258C332.414 48.9962 332.505 48.7757 332.667 48.6134C332.829 48.451 333.05 48.3603 333.279 48.3613H344.608ZM292.999 48.7936C293.44 48.7936 293.805 49.1228 293.86 49.5495L293.868 49.658V71.1872C293.867 71.4171 293.957 71.638 294.119 71.801C294.255 71.9368 294.43 72.0231 294.618 72.048L294.732 72.0556H312.52C312.963 72.0556 313.328 71.7243 313.382 71.2961L313.389 71.1872V50.0903C313.389 49.6496 313.719 49.2859 314.145 49.2325L314.253 49.2258H325.59C326.03 49.2258 326.394 49.5556 326.447 49.9818L326.454 50.0903V104.827C326.454 105.267 326.124 105.631 325.698 105.684L325.59 105.691H314.253C313.813 105.691 313.449 105.361 313.396 104.935L313.389 104.827V84.1306C313.387 83.6893 313.056 83.3261 312.629 83.2729L312.52 83.2661H294.732C294.291 83.2661 293.928 83.5959 293.874 84.0222L293.868 84.1306V104.827C293.866 105.268 293.535 105.631 293.108 105.684L292.999 105.691H281.663C281.223 105.689 280.86 105.36 280.806 104.935L280.798 104.827V49.658C280.8 49.2182 281.129 48.8556 281.555 48.8007L281.663 48.7936H292.999ZM84.5094 36.4678L84.6981 36.5299L99.0207 41.7875H99.0404C100.094 42.161 100.776 42.8582 100.852 43.6302L100.86 43.7757V103.369C100.86 105.036 98.1925 106.111 95.9166 105.415L95.7279 105.353L81.4053 100.096C80.3512 99.7259 79.6732 99.0289 79.597 98.257L79.5899 98.1114V38.5182C79.5899 36.8513 82.2347 35.7721 84.5094 36.4678ZM152.712 60.2045H146.566C146.09 60.2067 145.704 60.5925 145.702 61.069V93.8559C145.702 94.3333 146.089 94.7203 146.566 94.7203H152.712C156.262 94.7203 159.286 93.9266 161.785 92.3391C164.232 90.8164 166.181 88.6121 167.392 85.9971C169.865 80.565 169.865 74.3284 167.392 68.8964C166.177 66.286 164.229 64.0852 161.785 62.5622C159.286 60.9904 156.262 60.2045 152.712 60.2045ZM205.971 65.2054C205.717 65.2054 205.491 65.3555 205.39 65.582L205.358 65.6703L199.778 85.388C199.707 85.6404 199.758 85.9117 199.916 86.1208C200.052 86.3001 200.253 86.416 200.472 86.4455L200.584 86.4529H211.358C211.621 86.4546 211.869 86.3321 212.028 86.1224C212.164 85.9427 212.22 85.717 212.188 85.4972L212.164 85.388L206.584 65.6703C206.507 65.3954 206.256 65.2054 205.971 65.2054ZM395.831 65.2054C395.578 65.2054 395.352 65.3555 395.25 65.582L395.218 65.6703L389.639 85.388H389.658C389.588 85.6371 389.636 85.9048 389.79 86.1131C389.922 86.2917 390.118 86.4094 390.335 86.4431L390.444 86.4529H401.219C401.481 86.4526 401.728 86.3298 401.887 86.1209C402.023 85.9418 402.081 85.7171 402.051 85.4973L402.028 85.388L396.444 65.6703C396.367 65.3954 396.117 65.2054 395.831 65.2054ZM57.9938 15.5634L58.1825 15.6256L72.5052 20.8831C73.5592 21.2529 74.2373 21.9325 74.3134 22.7024L74.3205 22.8478V59.1318C74.3205 60.7987 71.6534 61.8779 69.3775 61.1822L69.1888 61.1201L54.8661 55.8625C53.8158 55.489 53.1345 54.7918 53.0579 54.0198L53.0507 53.8743V17.5903C53.0507 15.9425 55.7179 14.8675 57.9938 15.5634ZM31.4701 0.219158L31.6591 0.281276L45.9582 5.53488C47.0122 5.9084 47.6903 6.60563 47.7664 7.37759L47.7736 7.52315V46.9978C47.7736 48.6647 45.1287 49.7439 42.854 49.0482L42.6654 48.9861L28.3427 43.7286C27.2887 43.3588 26.6106 42.6583 26.5345 41.8859L26.5273 41.7403V2.24597C26.5273 0.598176 29.1908 -0.476761 31.4701 0.219158Z" fill="#10363D"/>
</g>
<defs>
<clipPath id="clip0_2_14351">
<rect width="512" height="137" fill="white"/>
</clipPath>
</defs>
</svg>
