<svg width="256" height="370" viewBox="0 0 256 370" fill="none" xmlns="http://www.w3.org/2000/svg">
<g clip-path="url(#clip0_2_14904)">
<path d="M128 0C36.468 150.218 0 178.702 0 241.794C0 312.486 57.308 369.794 128 369.794C198.692 369.794 256 312.486 256 241.794C256 178.15 218.973 149.942 128 0ZM128 348.777C68.797 348.777 20.804 300.783 20.804 241.58C20.804 188.743 51.345 164.888 128 39.085C204.188 164.657 235.196 188.28 235.196 241.58C235.196 300.783 187.203 348.777 128 348.777ZM114.73 303.811C102.397 301.045 93.049 296.068 84.2 287.716C77.839 281.687 74.355 277.097 70.815 270.239C65.229 259.343 63.293 250.604 63.735 238.16C63.901 232.02 64.289 228.923 65.395 224.83C67.054 218.58 69.819 211.722 71.313 210.063C71.921 209.399 72.419 208.624 72.419 208.293C72.419 207.961 72.861 207.076 73.359 206.302C74.797 204.034 74.853 200.826 73.525 198.171C70.539 192.364 65.671 189.93 59.698 191.258C55.55 192.198 53.393 194.963 49.189 204.698C44.156 216.423 42.11 225.051 41.612 236.777C39.731 279.475 69.101 317.03 110.969 325.547C115.228 326.377 117.164 326.543 118.878 326.156C127.451 324.22 130.604 314.375 124.741 307.959C122.971 305.968 121.312 305.304 114.73 303.811Z" fill="#9B4DCA"/>
</g>
<defs>
<clipPath id="clip0_2_14904">
<rect width="256" height="370" fill="white"/>
</clipPath>
</defs>
</svg>
