<svg width="256" height="137" viewBox="0 0 256 137" fill="none" xmlns="http://www.w3.org/2000/svg">
<g clip-path="url(#clip0_2_14468)">
<path d="M67.6543 1.61035L91.8729 83.964L116.102 1.61035H133.632L93.5394 136.911H91.8709L66.813 53.0653L41.7571 136.911H40.0866L0 1.61035H17.5405L41.7571 83.964L58.1291 28.5114L50.1117 1.61236H67.6543V1.61035Z" fill="#005A9C"/>
<path d="M183.426 93.4792C183.426 105.735 180.166 116.035 173.664 124.388C167.143 132.737 158.706 136.911 148.351 136.911C140.557 136.911 133.769 134.425 127.976 129.478C122.183 124.518 117.897 117.808 115.114 109.355L128.807 103.675C130.817 108.799 133.459 112.835 136.744 115.778C140.029 118.728 143.892 120.21 148.351 120.21C153.028 120.21 156.985 117.587 160.216 112.357C163.446 107.125 165.057 100.836 165.057 93.4812C165.057 85.3515 163.328 79.0669 159.872 74.6095C155.867 69.3811 149.574 66.7548 141.005 66.7548H134.325V58.7415L157.708 18.3176H129.474L121.621 31.6798H116.616V1.61035H181.752V9.79231L157.035 52.3927C165.717 55.1736 172.287 60.2454 176.742 67.5941C181.2 74.9408 183.426 83.5625 183.426 93.4792Z" fill="#005A9C"/>
<path d="M251.404 0.853516L254.243 18.121L244.188 37.3621C244.188 37.3621 240.325 29.2023 233.914 24.6846C228.507 20.8717 224.985 20.0485 219.485 21.1789C212.404 22.6446 204.394 31.0936 200.897 41.5184C196.712 53.9871 196.672 60.0267 196.524 65.5683C196.293 74.459 197.688 79.7095 197.688 79.7095C197.688 79.7095 191.584 68.4134 191.643 51.8688C191.679 40.0587 193.544 29.3448 199.003 18.7815C203.814 9.49126 210.95 3.91548 217.293 3.26494C223.846 2.57624 229.035 5.73257 233.036 9.16398C237.231 12.754 241.495 20.6047 241.495 20.6047L251.404 0.853516Z" fill="#221B0A"/>
<path d="M252.633 98.5833C252.633 98.5833 248.2 106.528 245.427 109.586C242.658 112.646 237.699 118.037 231.581 120.74C225.459 123.436 222.252 123.948 216.199 123.362C210.155 122.78 204.539 119.282 202.573 117.812C200.608 116.363 195.574 112.062 192.741 108.066C189.89 104.051 185.444 96.0293 185.444 96.0293C185.444 96.0293 187.92 104.063 189.474 107.472C190.362 109.434 193.108 115.433 197.002 120.668C200.626 125.537 207.673 133.927 218.389 135.817C229.103 137.714 236.464 132.907 238.281 131.739C240.102 130.578 243.941 127.366 246.376 124.762C248.914 122.049 251.314 118.579 252.633 116.513C253.611 114.991 255.195 111.923 255.195 111.923L252.633 98.5833Z" fill="#221B0A"/>
</g>
<defs>
<clipPath id="clip0_2_14468">
<rect width="256" height="137" fill="white"/>
</clipPath>
</defs>
</svg>
