<svg width="512" height="160" viewBox="0 0 512 160" fill="none" xmlns="http://www.w3.org/2000/svg">
<g clip-path="url(#clip0_2_14441)">
<path d="M40.0964 0L132.421 159.769H92.1189L66.2104 114.737L40.0964 159.769H0L46.0594 79.9872L0 0H40.0964ZM132.215 0L91.7076 70.3229C79.4937 48.5413 79.573 22.1245 91.7463 0.649243L92.1189 0H132.215Z" fill="black"/>
<path d="M183.415 37.0117C193.491 37.2173 202.332 40.0961 209.941 45.6479L202.949 56.1346C196.781 52.0222 189.995 49.7603 182.798 49.5547C178.892 49.5547 175.807 50.5828 173.34 52.4334C170.667 54.4896 169.227 57.574 169.227 61.4808C169.227 63.9483 170.05 66.2101 171.9 68.0607C173.751 70.1169 176.63 71.5563 180.742 72.1732C183.004 72.5844 186.088 72.9957 189.995 73.4069C197.603 74.435 203.361 77.3137 207.062 81.8374C210.763 86.3611 212.408 91.5017 212.408 97.6704C211.791 114.326 202.332 122.345 183.621 122.551C171.489 122.551 161.208 118.644 152.366 111.036L160.591 101.577C167.171 107.129 174.779 109.802 183.826 110.008C194.519 109.802 199.865 105.895 200.071 98.2872C200.071 91.9129 196.575 88.2117 189.378 86.978C186.088 86.5667 182.387 85.9499 178.48 85.333C171.489 84.0993 166.143 81.4262 162.442 77.3137C158.741 72.9957 156.684 67.8551 156.684 61.6864C156.684 54.284 159.152 48.321 163.881 43.7973C168.405 39.2736 174.985 37.0117 183.415 37.0117ZM290.75 37.6286V48.9378H268.337V121.934H256V48.9378H233.587V37.6286H290.75ZM338.66 37.6286L368.27 121.934H355.727L349.353 103.017H318.304L311.929 121.934H298.769L328.379 37.6286H338.66ZM434.48 37.6286V48.9378H412.067V121.934H399.73V48.9378H377.317V37.6286H434.48ZM511.177 37.6286V49.5547H471.287V73.6125H505.214V84.9218H471.287V109.802H511.177V121.728H458.949V37.6286H511.177ZM334.136 54.9009H333.931L322.005 91.7073H345.857L334.136 54.9009Z" fill="black"/>
</g>
<defs>
<clipPath id="clip0_2_14441">
<rect width="512" height="160" fill="white"/>
</clipPath>
</defs>
</svg>
